<svg xmlns="http://www.w3.org/2000/svg" viewBox="0 0 72 72" role="img" aria-label="Trackspace logo">
  <rect width="72" height="72" rx="10" fill="#070910"/>
  <path fill="#f2f5fb" d="M59.66 42.19c.32-2.01-.95-3.81-2.96-4.13-1.91-.32-3.7.95-4.02 2.86-.32 1.91.95 3.81 2.86 4.13 1.9.32 3.8-.95 4.12-2.86Zm1.8.32c-.53 2.86-3.28 4.87-6.25 4.34-2.96-.53-4.87-3.28-4.45-6.25.53-2.96 3.39-4.87 6.25-4.45 2.97.54 4.98 3.4 4.45 6.36ZM44.31 57.75c-.11 1.48-.11 2.96-.11 4.55 2.86-1.06 8.26-4.13 8.36-7.83-2.85 1.48-5.6 2.54-8.25 3.28ZM42.72 40.6c-3.49-1.16-8.15 2.86-10.16 5.29 1.48.53 2.96.95 4.45 1.38 1.48-2.22 3.38-4.55 5.71-6.67ZM64.21 32.24 67.6 37c.53-1.38.74-2.75.85-4.13-1.38-.42-2.76-.63-4.24-.63ZM40.08 54.79l7.73-5.5c1.69-1.16-.11-3.7-1.69-2.54l-7.83 5.5c-1.6 1.06.09 3.7 1.79 2.54Zm4.76-1.06L42.93 55l.74.95c.74-.21 1.48-.42 2.33-.64l-1.16-1.58Zm-2.44-6.67 2.54-1.8c3.7-2.65 7.62 2.96 4.02 5.5l-2.54 1.8 1.38 2.01c7.2-2.85 15.46-8.57 18.95-15.55l-4.66-6.67c-7.83.95-15.88 6.77-21.07 12.7l1.38 2.01Zm-3.38 2.44 1.91-1.38-1.16-1.59c-.42.64-.95 1.38-1.38 2.01l.63.96Zm6.56-22.87c2.65-3.18 14.4-17.68 11.11-21.17-1.48-1.48-6.35.53-8.05 1.38 1.69.53 2.54 1.69 2.75 3.39.75 4.76-3.48 12.49-5.81 16.4Zm3.28-11.01c-1.38-1.69-2.96-3.28-4.76-4.45-5.72-4.02-12.7-5.4-19.37-3.81C12.34 10.22 4.4 22.29 6.52 34.89c1.69 9.63 9 17.25 18.52 19.37 4.76-1.48 9.1-3.49 11.54-4.98l-.11-.21c-1.91-.53-3.81-1.16-5.72-1.8-.64-.21-.85-.95-.42-1.48 2.65-3.81 9-9.21 13.87-6.56 2.96-2.54 6.46-4.87 9.95-6.46.64-3.39-.53-8.36-1.91-11.64-5.4 7.3-12.39 14.4-14.71 16.62-.85.74-2.12-.42-1.27-1.27 3.18-3.92 10.27-13.66 12.6-20.86ZM33.62 10.12c-1.91 0-3.39 1.48-3.39 3.28 0 1.91 1.48 3.39 3.39 3.39 1.8 0 3.28-1.48 3.28-3.39 0-1.8-1.48-3.28-3.28-3.28Zm0-1.91c2.86 0 5.19 2.33 5.19 5.19 0 2.96-2.33 5.29-5.19 5.29-2.86 0-5.29-2.33-5.29-5.29 0-2.86 2.43-5.19 5.29-5.19ZM40.6 18.9c-.85 0-1.59.74-1.59 1.59 0 .95.74 1.59 1.59 1.59.85 0 1.59-.74 1.59-1.59 0-.84-.63-1.59-1.59-1.59Zm0-1.9c1.91 0 3.49 1.59 3.49 3.49 0 1.91-1.59 3.49-3.49 3.49-1.91 0-3.39-1.59-3.39-3.49.01-1.9 1.49-3.49 3.39-3.49Zm-11.64 4.34c-1.27 0-2.22.95-2.22 2.12 0 1.16.95 2.12 2.22 2.12 1.16 0 2.12-.95 2.12-2.12 0-1.17-.96-2.12-2.12-2.12Zm0-1.91c2.12 0 3.92 1.8 3.92 4.02s-1.8 4.02-3.92 4.02c-2.22 0-4.02-1.8-4.02-4.02s1.8-4.02 4.02-4.02ZM18.06 46.22c.95.74-.21 2.22-1.16 1.48-4.13-3.39-6.99-8.05-7.83-13.23-.21-1.27 1.59-1.59 1.8-.32.84 4.76 3.38 9 7.19 12.07Zm4.55 2.64c1.16.53.42 2.22-.74 1.69-.74-.32-1.38-.64-2.12-.95-1.06-.64-.11-2.22.95-1.69.64.42 1.27.74 1.91.95ZM37.01 56.06c-7.3 3.28-21.91 7.73-29.22 4.87-2.33-.85-3.7-2.12-4.34-3.7.42 4.55 4.66 6.35 10.9 6.35 8.57 0 19.9-3.39 27.31-7.2l-.21-.32-.32.21c-1.48 1.17-3.17.74-4.12-.21ZM4.61 53.73c0 2.33 1.06 4.45 3.81 5.5 6.67 2.54 20.75-1.69 27.52-4.76-.32-.95-.21-2.01.42-2.86-4.66 2.43-13.23 5.72-20.22 6.56-4.22.43-10.04.22-11.53-4.44Z"/>
</svg>
