<svg width="32" height="32" viewBox="0 0 32 32" fill="none" xmlns="http://www.w3.org/2000/svg" role="img" aria-label="Trackspace">
  <defs>
    <!-- App background: near-black navy with a faint top-right glow (ts-bg) -->
    <radialGradient id="ts-bg" cx="70%" cy="24%" r="90%">
      <stop offset="0%" stop-color="#0d1626"/>
      <stop offset="60%" stop-color="#080b13"/>
      <stop offset="100%" stop-color="#06080e"/>
    </radialGradient>
    <radialGradient id="ts-core" cx="50%" cy="50%" r="50%">
      <stop offset="0%" stop-color="#dff5ff"/>
      <stop offset="55%" stop-color="#5bd0ff"/>
      <stop offset="100%" stop-color="#2b6b86"/>
    </radialGradient>
    <filter id="ts-glow" x="-60%" y="-60%" width="220%" height="220%">
      <feGaussianBlur stdDeviation="0.9" result="b"/>
      <feMerge>
        <feMergeNode in="b"/>
        <feMergeNode in="SourceGraphic"/>
      </feMerge>
    </filter>
  </defs>

  <!-- Tile -->
  <rect x="0" y="0" width="32" height="32" rx="7" fill="url(#ts-bg)"/>
  <rect x="0.5" y="0.5" width="31" height="31" rx="6.5" fill="none" stroke="#1b2230" stroke-width="1"/>

  <!-- Faint reticle axes (the tracking crosshair) -->
  <g stroke="#5bd0ff" stroke-width="1" opacity="0.22">
    <line x1="16" y1="4.5" x2="16" y2="27.5"/>
    <line x1="4.5" y1="16" x2="27.5" y2="16"/>
  </g>

  <!-- HUD corner brackets (echoes .trackspace-corner) -->
  <g stroke="#2b6b86" stroke-width="1.4" opacity="0.85" fill="none" stroke-linecap="round">
    <path d="M5 8.5 V5.5 H8"/>
    <path d="M24 5.5 H27 V8.5"/>
    <path d="M5 23.5 V26.5 H8"/>
    <path d="M27 23.5 V26.5 H24"/>
  </g>

  <!-- Orbital tracking ring -->
  <circle cx="16" cy="16" r="8.4" fill="none" stroke="#5bd0ff" stroke-width="2"/>

  <!-- Reticle ticks where axes cross the ring -->
  <g stroke="#5bd0ff" stroke-width="2" stroke-linecap="round">
    <line x1="16" y1="5.6" x2="16" y2="8.2"/>
    <line x1="16" y1="23.8" x2="16" y2="26.4"/>
    <line x1="5.6" y1="16" x2="8.2" y2="16"/>
    <line x1="23.8" y1="16" x2="26.4" y2="16"/>
  </g>

  <!-- Tracked target locked on the ring: "ready" green status dot -->
  <circle cx="22" cy="10" r="2.6" fill="#33d39c" filter="url(#ts-glow)"/>
  <circle cx="22" cy="10" r="2.6" fill="none" stroke="#070910" stroke-width="1"/>

  <!-- Core: the lunar base being tracked -->
  <circle cx="16" cy="16" r="3" fill="url(#ts-core)" filter="url(#ts-glow)"/>
</svg>
